<?xml version="1.0" encoding="UTF-8" standalone="no"?>
<!DOCTYPE svg PUBLIC "-//W3C//DTD SVG 1.1//EN"
 "http://www.w3.org/Graphics/SVG/1.1/DTD/svg11.dtd">
<!-- Generated by graphviz version 8.0.5 (0)
 -->
<!-- Pages: 1 -->
<svg width="467pt" height="149pt"
 viewBox="0.00 0.00 467.24 148.70" xmlns="http://www.w3.org/2000/svg" xmlns:xlink="http://www.w3.org/1999/xlink">
<g id="graph0" class="graph" transform="scale(1 1) rotate(0) translate(4 144.7)">
<polygon fill="white" stroke="none" points="-4,4 -4,-144.7 463.24,-144.7 463.24,4 -4,4"/>
<!-- Q0 -->
<g id="node1" class="node">
<title>Q0</title>
</g>
<!-- 1,{} -->
<g id="node3" class="node">
<title>1,{}</title>
<ellipse fill="none" stroke="black" cx="65.02" cy="-78.9" rx="27.3" ry="27.3"/>
<text text-anchor="middle" x="65.02" y="-73.85" font-family="Times,serif" font-size="14.00">1,{}</text>
</g>
<!-- Q0&#45;&gt;1,{} -->
<g id="edge1" class="edge">
<title>Q0&#45;&gt;1,{}</title>
<path fill="none" stroke="black" d="M1.12,-78.9C3.34,-78.9 14.35,-78.9 26.56,-78.9"/>
<polygon fill="black" stroke="black" points="26.4,-82.4 36.4,-78.9 26.4,-75.4 26.4,-82.4"/>
</g>
<!-- Q1 -->
<g id="node2" class="node">
<title>Q1</title>
</g>
<!-- 1,{}&#45;&gt;1,{} -->
<g id="edge6" class="edge">
<title>1,{}&#45;&gt;1,{}</title>
<path fill="none" stroke="black" d="M56.48,-104.97C56,-115.42 58.84,-124.2 65.02,-124.2 68.87,-124.2 71.43,-120.77 72.69,-115.65"/>
<polygon fill="black" stroke="black" points="76.24,-116.22 73.55,-105.97 69.26,-115.66 76.24,-116.22"/>
<text text-anchor="middle" x="65.02" y="-127.4" font-family="Times,serif" font-size="14.00" fill="red">a,[1</text>
</g>
<!-- 2,{} -->
<g id="node5" class="node">
<title>2,{}</title>
<ellipse fill="none" stroke="black" cx="394.22" cy="-78.9" rx="27.3" ry="27.3"/>
<text text-anchor="middle" x="394.22" y="-73.85" font-family="Times,serif" font-size="14.00">2,{}</text>
</g>
<!-- 1,{}&#45;&gt;2,{} -->
<g id="edge3" class="edge">
<title>1,{}&#45;&gt;2,{}</title>
<path fill="none" stroke="black" d="M90.63,-89.53C106.93,-95.97 128.99,-103.58 149.31,-106.9 224.04,-119.13 245.21,-120.6 319.67,-106.9 333.11,-104.43 347.27,-99.62 359.54,-94.67"/>
<polygon fill="black" stroke="black" points="360.5,-97.64 368.35,-90.53 357.77,-91.2 360.5,-97.64"/>
<text text-anchor="middle" x="234.49" y="-119.1" font-family="Times,serif" font-size="14.00" fill="red">b</text>
</g>
<!-- 1,{1} -->
<g id="node6" class="node">
<title>1,{1}</title>
<ellipse fill="none" stroke="black" cx="181.22" cy="-31.9" rx="31.9" ry="31.9"/>
<text text-anchor="middle" x="181.22" y="-26.85" font-family="Times,serif" font-size="14.00">1,{1}</text>
</g>
<!-- 1,{}&#45;&gt;1,{1} -->
<g id="edge4" class="edge">
<title>1,{}&#45;&gt;1,{1}</title>
<path fill="none" stroke="black" d="M90.8,-68.7C105.57,-62.62 124.65,-54.77 141.39,-47.88"/>
<polygon fill="black" stroke="black" points="142.54,-50.78 150.45,-43.74 139.87,-44.31 142.54,-50.78"/>
<text text-anchor="middle" x="120.81" y="-63.1" font-family="Times,serif" font-size="14.00" fill="red">a,[1</text>
</g>
<!-- 2,{1} -->
<g id="node4" class="node">
<title>2,{1}</title>
<ellipse fill="none" stroke="black" cx="287.77" cy="-31.9" rx="31.9" ry="31.9"/>
<text text-anchor="middle" x="287.77" y="-26.85" font-family="Times,serif" font-size="14.00">2,{1}</text>
</g>
<!-- 2,{1}&#45;&gt;2,{1} -->
<g id="edge9" class="edge">
<title>2,{1}&#45;&gt;2,{1}</title>
<path fill="none" stroke="black" d="M277.78,-62.6C277.68,-73.23 281.01,-81.81 287.77,-81.81 292,-81.81 294.88,-78.45 296.43,-73.35"/>
<polygon fill="black" stroke="black" points="300,-73.96 297.76,-63.6 293.06,-73.1 300,-73.96"/>
<text text-anchor="middle" x="287.77" y="-85.01" font-family="Times,serif" font-size="14.00" fill="red">]1</text>
</g>
<!-- 2,{1}&#45;&gt;2,{} -->
<g id="edge2" class="edge">
<title>2,{1}&#45;&gt;2,{}</title>
<path fill="none" stroke="black" d="M317.31,-44.75C330.21,-50.55 345.56,-57.46 359.06,-63.53"/>
<polygon fill="black" stroke="black" points="357.41,-67.08 367.96,-67.99 360.28,-60.69 357.41,-67.08"/>
<text text-anchor="middle" x="343.3" y="-62.1" font-family="Times,serif" font-size="14.00" fill="red">]1</text>
</g>
<!-- 2,{}&#45;&gt;Q1 -->
<g id="edge10" class="edge">
<title>2,{}&#45;&gt;Q1</title>
<path fill="none" stroke="black" d="M421.7,-78.9C430.66,-78.9 440.19,-78.9 447.31,-78.9"/>
<polygon fill="black" stroke="black" points="447.02,-82.4 457.02,-78.9 447.02,-75.4 447.02,-82.4"/>
</g>
<!-- 2,{}&#45;&gt;2,{} -->
<g id="edge7" class="edge">
<title>2,{}&#45;&gt;2,{}</title>
<path fill="none" stroke="black" d="M385.69,-104.97C385.2,-115.42 388.05,-124.2 394.22,-124.2 398.08,-124.2 400.64,-120.77 401.89,-115.65"/>
<polygon fill="black" stroke="black" points="405.44,-116.22 402.75,-105.97 398.46,-115.66 405.44,-116.22"/>
<text text-anchor="middle" x="394.22" y="-127.4" font-family="Times,serif" font-size="14.00" fill="red">]1</text>
</g>
<!-- 1,{1}&#45;&gt;2,{1} -->
<g id="edge5" class="edge">
<title>1,{1}&#45;&gt;2,{1}</title>
<path fill="none" stroke="black" d="M213.59,-31.9C223.3,-31.9 234.18,-31.9 244.51,-31.9"/>
<polygon fill="black" stroke="black" points="244.42,-35.4 254.42,-31.9 244.42,-28.4 244.42,-35.4"/>
<text text-anchor="middle" x="234.49" y="-35.1" font-family="Times,serif" font-size="14.00" fill="red">b</text>
</g>
<!-- 1,{1}&#45;&gt;1,{1} -->
<g id="edge8" class="edge">
<title>1,{1}&#45;&gt;1,{1}</title>
<path fill="none" stroke="black" d="M171.23,-62.6C171.12,-73.23 174.45,-81.81 181.22,-81.81 185.44,-81.81 188.33,-78.45 189.87,-73.35"/>
<polygon fill="black" stroke="black" points="193.45,-73.96 191.2,-63.6 186.5,-73.1 193.45,-73.96"/>
<text text-anchor="middle" x="181.22" y="-85.01" font-family="Times,serif" font-size="14.00" fill="red">a,[1</text>
</g>
</g>
</svg>
